<?xml version="1.0" standalone="no"?>
<!DOCTYPE svg PUBLIC "-//W3C//DTD SVG 20010904//EN"
 "http://www.w3.org/TR/2001/REC-SVG-20010904/DTD/svg10.dtd">
<svg version="1.0" xmlns="http://www.w3.org/2000/svg"
 width="500.000000pt" height="500.000000pt" viewBox="0 0 500.000000 500.000000"
 preserveAspectRatio="xMidYMid meet">
<metadata>
Created by potrace 1.14, written by Peter Selinger 2001-2017
</metadata>
<g transform="translate(0.000000,500.000000) scale(0.100000,-0.100000)"
fill="#000000" stroke="none">
<path d="M930 4450 c0 -15 -14 -23 -69 -40 -37 -11 -85 -34 -106 -50 -21 -17
-42 -30 -47 -30 -18 0 -150 -135 -169 -172 -11 -21 -24 -38 -29 -38 -11 0 -27
-34 -55 -112 -9 -27 -22 -48 -29 -48 -9 0 -15 -25 -20 -77 -8 -96 -8 -1670 0
-1700 10 -37 32 -27 103 44 37 38 106 104 153 148 48 45 94 98 104 120 18 37
19 83 24 675 7 739 3 710 99 812 50 53 64 62 126 79 91 25 128 24 222 -6 85
-28 117 -51 178 -135 l40 -54 5 -531 c3 -291 9 -536 14 -544 26 -40 42 -41
858 -41 717 0 797 2 939 20 109 13 180 28 236 48 45 17 101 33 125 37 23 4 58
18 76 32 17 13 47 29 65 35 17 6 49 25 69 42 20 17 59 49 87 71 28 22 51 43
51 46 0 4 19 27 43 52 77 81 155 205 180 286 10 36 25 74 32 85 22 34 38 191
31 301 -6 77 -14 114 -35 165 -16 36 -32 76 -36 90 -4 14 -15 34 -25 45 -10
11 -25 35 -35 54 -25 50 -113 140 -160 163 -22 11 -50 30 -63 42 -13 11 -51
30 -85 42 -48 16 -63 26 -65 42 -3 22 -6 22 -213 22 -199 0 -209 -1 -209 -19
0 -19 -25 -32 -122 -61 -20 -6 -42 -18 -49 -26 -7 -9 -26 -22 -43 -31 -41 -21
-172 -155 -218 -223 -26 -40 -45 -87 -67 -173 -31 -115 -31 -122 -29 -314 l3
-196 28 -21 c33 -24 91 -26 244 -6 132 18 126 6 133 260 5 195 6 210 26 232
12 13 29 37 37 54 9 17 33 46 54 65 33 30 52 38 134 53 82 15 105 16 155 6 71
-15 116 -38 170 -87 34 -31 46 -53 67 -118 43 -137 43 -117 -1 -283 -34 -125
-129 -241 -272 -332 -25 -16 -97 -48 -160 -72 l-115 -42 -706 -4 c-655 -3
-707 -2 -720 14 -11 14 -15 86 -19 368 -5 302 -8 357 -24 396 -9 25 -26 69
-37 99 -10 30 -25 62 -33 70 -7 9 -21 31 -31 50 -22 44 -161 183 -206 206 -19
10 -48 29 -65 41 -17 13 -35 24 -41 24 -5 0 -33 7 -61 15 -40 12 -52 20 -52
35 0 19 -8 20 -195 20 -187 0 -195 -1 -195 -20z"/>
<path d="M4150 2724 c-47 -47 -112 -109 -145 -136 -33 -28 -70 -67 -82 -87
l-23 -36 0 -617 0 -616 -30 -92 c-35 -108 -80 -160 -175 -204 -92 -43 -144
-44 -245 -6 -93 34 -137 72 -195 166 l-30 49 -5 520 c-4 398 -8 525 -18 543
l-13 22 -837 0 c-870 0 -1022 -6 -1122 -41 -30 -11 -82 -26 -115 -35 -61 -15
-240 -97 -250 -115 -4 -5 -25 -19 -47 -30 -44 -23 -73 -47 -143 -120 -45 -46
-135 -175 -135 -193 0 -5 -13 -30 -29 -55 -16 -25 -37 -77 -47 -115 -12 -47
-23 -70 -34 -73 -14 -4 -18 -23 -24 -118 -9 -145 2 -295 20 -295 17 0 28 -23
43 -87 7 -28 22 -60 33 -70 11 -10 27 -31 35 -47 24 -46 114 -136 158 -158 22
-11 52 -33 67 -49 15 -16 36 -29 47 -29 39 0 101 -31 101 -51 0 -18 11 -19
210 -19 201 0 210 1 210 19 0 15 15 25 58 40 31 12 68 27 82 35 14 8 43 25 65
37 41 22 205 182 205 199 0 5 13 30 29 56 17 25 34 67 40 94 6 26 20 71 32
101 17 44 22 82 26 205 8 209 3 236 -50 273 -41 28 -44 28 -127 20 -118 -11
-192 -27 -210 -45 -12 -12 -16 -55 -20 -228 l-5 -213 -29 -41 c-70 -101 -152
-148 -282 -160 -82 -7 -177 29 -236 88 -67 69 -75 85 -91 180 -13 72 -13 98
-2 172 12 77 19 97 60 158 64 97 140 177 194 206 25 14 60 34 78 45 17 11 71
26 120 34 48 8 113 21 143 30 95 26 299 35 836 35 512 0 522 0 548 -21 l26
-20 0 -317 c0 -316 0 -317 29 -435 18 -74 37 -127 50 -141 11 -11 26 -36 33
-53 15 -36 61 -96 97 -127 13 -12 33 -31 45 -42 11 -12 44 -33 73 -47 28 -15
54 -31 57 -36 4 -5 42 -21 86 -36 63 -21 80 -31 80 -46 0 -18 9 -19 194 -19
192 0 195 0 198 22 2 17 18 26 72 45 38 12 79 31 90 41 12 10 34 24 49 32 16
8 71 58 122 112 71 73 97 108 105 139 6 23 26 69 43 102 l32 61 3 827 c2 716
1 832 -12 863 -8 20 -19 36 -23 36 -5 0 -47 -39 -93 -86z"/>
</g>
</svg>
